<svg enable-background="new 0 0 110 110" height="512" viewBox="0 0 110 110" width="512" xmlns="http://www.w3.org/2000/svg"><path d="m66.3139114 25.0005512c-1.1286469 1.051836-1.0411682 2.5950661-.8250046 3.7981834.1148911.6393623.2295761 1.2788162.3444138 1.9181252.1244049.692482.2606354 1.4097233.7106094 1.878149.4500275.4684792 1.3132553.6048279 2.0295868.0957947.2988129-.2123146.5385895-.5104713.7306976-.8176041.7023087-1.1233406.7983246-2.4489326.237114-3.275589-.653244-.9620705-2.1181717-1.3488655-2.1303101-2.6590652-.0116348-1.25947 1.3308411-2.505312 2.5174942-3.4380741.092804-.0729713.192131-.1490517.2958603-.1707134.4963226-.1038799.1200333.9166985.5405731 1.0440464.748436-.5735245 1.759201-.5752239 2.1603394-.0035076.6453552-.2513409.6947327-1.1171761.8367691-1.7592316.2239532-1.0109062 1.1564331-2.0034752 2.1650925-2.4543114 2.2993164-1.028017 4.0084686.4050922 4.5122757 2.1643085.1334839.4659748.2119598.8971882.3592911 1.3072567 1.5690536-1.2883091 4.1367722-.9530468 5.973938.7875767l.0022888-.0022469c.0053635.0057602.0099564.0120659.0153275.017828.0057678.005579.0119324.0102348.0176468.0157604l-.0022888.0022469c1.7063065 1.8690758 1.9939728 4.4425678.6768341 5.9874935.4072113.1548462.8369522.2413464 1.3003769.3834324 1.749588.5362949 3.1507492 2.2716351 2.0803909 4.5515766-.4694366 1.0001411-1.4790955 1.9140854-2.4939804 2.1192856-.644577.1301155-1.5111771.1634598-1.7744217.8040466.5641403.411602.5437775 1.4222183-.0435104 2.1599083.119545.422821 1.1468582.0654411 1.0338593.5598068-.0235748.1033134-.1014786.20121-.1762085.2925949-.9545212 1.169239-2.2250595 2.4883575-3.4840469 2.4534607-1.3097534-.0363922-1.6694107-1.5082855-2.6192169-2.1792297-.8160706-.5763664-2.1432114-.5049133-3.2793655.1764793-.3106384.1863823-.6131821.4206009-.8309937.7154312-.5222626.7067337-.4018707 1.5723915.058197 2.0310135.4599609.4585152 1.174614.6080589 1.8646698.7452583.6370773.1266556 1.274292.2531624 1.9113693.379818 1.1989594.2384605 2.7402496.354435 3.8128586-.7544785 1.2455978 1.4068413.1775208 4.3727417-1.8162537 5.9740639-.9156036.7352943-2.14431 1.2494354-2.9166565.8278084-.4133606-.2257996-.6313629-.6860008-1.0610123-.8888092-.4391174-.2077293-1.0299606-.1174164-1.5587921-.1518211-1.0366669-.0669327-1.8735962-.6542091-2.2148666-1.5537224-.051857-.1361427-.0996323-.2873268-.2304535-.3485069-.2239075-.1048965-.5539856.0995064-.820694.2845497-.9721909.674408-2.2692184 1.2778893-2.9277039.6986771-.5455933-.4798584-.3286896-1.5381317-.7956009-2.0950165-.3447647-.4114761-.9951096-.466568-1.6223907-.4151421-1.6703568.1369057-3.4797134.9177742-4.9840355 2.1506004-.5692406.4665413-1.1257858 1.0130882-1.7725563 1.2550049-.6347885.2375793-1.4755516.0216026-1.400177-.5908623-.6137543.0640221-.8140755-.7805405-.5647812-1.4108238.2538528-.6421814.8106575-1.1884537 1.2876625-1.7489624 1.2604675-1.4812317 2.074646-3.2758751 2.2425117-4.9433556.0630302-.6262207.0199928-1.2774773-.3850327-1.6297989-.5481415-.4771461-1.6102486-.2798767-2.0799255-.834259-.5669174-.6690979.060421-1.9547844.7527657-2.9142647.189949-.2632408.4004288-.5894699.2996979-.8152809-.0587463-.1319313-.2090225-.1824989-.3442345-.236927-.8929901-.357811-1.4646683-1.205471-1.5124474-2.2432556-.0245552-.5293198.0766296-1.1184464-.122879-1.5612793-.1948738-.4333858-.6509056-.6598186-.8690681-1.0773411-.4071999-.7799683.1296005-1.9989395.8817253-2.9007778 1.6379585-1.9637812 4.6230735-2.9768142 6.0066718-1.7053279z" fill="#4abba4"/><g fill="#41a38e"><path d="m76.8131104 45.5726891c-.5862122-.5057945-1.1472168-1.0381584-1.6340103-1.6344719-.2427826-.297699-.4847031-.5956917-.7022476-.9116173-.2312469-.2984314-.371666-.6569328-.7877808-1.0423698-.4276657-.3465691-.877182-.4540291-1.3056107-.545372-.4373398-.081646-.8818207-.1020241-1.3129654-.0576401-.8625412.093956-1.6717606.3650131-2.4088898.7389679-.2565765.1274567-.4947205.2738533-.7356949.4170799.1182175-.4255447.1298447-.8906746.0682068-1.3347588-.0935516-.6054764-.2908936-1.1870651-.5312042-1.7313347-.4819641-1.085083-1.0198364-2.099884-1.5626602-3.1340408-.5585861-1.0198288-1.1293945-2.0356712-1.7446365-3.0228462-.5853119-.9783211-1.2126122-1.9425964-1.1610336-3.1374493-.2340889.5496082-.2178459 1.1962376-.0923691 1.7888203.1337395.595993.3635979 1.1586952.612381 1.6913261.4874115 1.0616302 1.0214081 2.0932884 1.5664597 3.1216621.5547791 1.0172577 1.14151 2.0397224 1.7350082 3.0176926.5007401.8783875.9789886 1.78936.9618149 2.8248062-1.097374.6698952-2.0783386 1.4529648-3.2019043 2.0509911 1.559906-.4235497 2.9568481-1.3205605 4.380806-1.8908691.7168961-.2723083 1.4508591-.4913177 2.181694-.5233498.3635864-.0158768.7229919-.0015793 1.0679016.0724068.3443069.0737801.6909561.1904869.8800049.3633461.1868896.1468124.3993073.5275764.6496735.8613205.2433929.3350182.5028839.6579475.7799835.9646263.5628891.6047783 1.176651 1.1625214 1.8537827 1.6290894 1.3381119.9528503 2.8895798 1.5887032 4.4777069 1.8294601-1.4921876-.592022-2.8441621-1.4153176-4.0344163-2.4054756z"/><path d="m74.0441666 32.687252c-.4640808-.8125458-.9505234-1.5540657-1.2687607-2.3559361-.3092194-.8041458-.4983139-1.6726341-.2432938-2.5849133-.6246338.7426376-.6790009 1.8627319-.4518814 2.7972775.2168045.9702663.7206268 1.8074932 1.1520691 2.5989628.4565125.7889023.8491364 1.5472603 1.0528107 2.3881912.1755753.7213593.2259445 1.4828262.1725616 2.2718391-.8266754.3907204-1.6021347.8593864-2.3280792 1.4087257 1.8890228-.5049477 3.6604004-1.2384872 5.4697571-1.3647003.4491196-.0397873.8977585-.0325966 1.3429337.0118866.4465103.0343246.9425049.155426 1.4896545.1145897.5621414-.0180511 1.0799484-.2841187 1.4757767-.5648651.405365-.2912521.7555618-.597332 1.1766815-.8513603-.9864502.1464767-1.8458099.8130493-2.6528397.689476-.4179916-.0422592-.8626862-.1625977-1.3668747-.2611809-.5086823-.0804138-1.0252838-.0960045-1.5350342-.0667076-1.0101318.0859146-1.9756927.3713379-2.8630753.777195.2913589-.7058067.4064331-1.4976463.3332291-2.2813377-.074295-.9916457-.506813-1.9198913-.955635-2.7271423z"/><path d="m79.1111603 26.9874363c.3134003.5842285.5829773 1.1741524.7610703 1.7820473.1071243.3881683.1641541.7919502.1466446 1.2110786-.0966187.0023785-.2003937.0113163-.3105621.0387173-.1923141.0478783-.3461456.1256142-.4715805.199276-.4770584.2850609-.9385376.5822296-1.3616638.9347782-.8540649.6881638-1.5978317 1.5116253-2.1431808 2.4481182.838028-.6847153 1.6765366-1.3138084 2.5620346-1.857563.4459457-.2638206.8927078-.528553 1.3543167-.7481346.2463303-.1096325.2782211-.1261883.5316772-.1047993.252182.0363274.6638565.0146866.9303207-.0586052.5429535-.1535301 1.0564728-.2932339 1.5957794-.5588455.5166168-.2633305 1.0589447-.700161 1.2887802-1.3037949.2277908-.5861588.2491989-1.1499577.219902-1.6890945-.0290451-.5458469-.0561905-1.0867996-.1258545-1.6188965-.1373672.5314693-.2324142 1.054184-.3291092 1.5720062-.0714035.5208454-.2089539 1.0354347-.4206619 1.4228077-.4267578.7576389-1.4559555 1.0115051-2.4455795 1.270628-.1958237.0479565-.3317719.061552-.5083771.0578823.1706848-.4167404.2407074-.8862438.2013168-1.3345451-.0531006-.7567062-.3291473-1.4551735-.6497955-2.0933456-.678093-1.2713127-1.5137863-2.2369366-1.9671478-3.5824432-.1617661.7066059-.0066452 1.4667683.242775 2.1337318.2435531.6771907.5981521 1.2885512.8988952 1.8789958z"/></g><path d="m65.9408951 62.5771332c-1.4019165 1.4019165-5.1496696 4.5241165-9.9474297 8.2048187-.2010612.1563339-.3965683.3071823-.6088486.463623-2.0553856 1.575058-4.3006935 3.2394714-6.6241646 4.9150314-.1563721.1117096-.3127403.2234192-.4747353.3406906-5.4289017 3.887352-11.2711143 7.774704-16.3090706 10.578537-.3574333.1899185-.7093105.3853912-1.0555973.5752716-5.5518627 2.9714584-9.9809742 4.4626923-11.5336704 2.9099884-3.2115517-3.2115479 6.5850639-18.6716766 15.5997581-31.026371.1731071-.2290154.3406601-.4635887.5138016-.6925697 5.1831474-7.059803 10.0201111-12.9802818 11.8744049-14.8345757 5.1273384-5.1273384 13.4326553-5.1217155 18.5599594.0055923 5.1273118 5.127308 5.1329347 13.4326212.0055925 18.5599634z" fill="#fd6122"/><path d="m64.5252991 61.1615372c-1.4019165 1.4019165-5.1019707 4.5718155-9.8145561 8.3376923-.1976547.1597443-.3897552.3139954-.5977745.4746933-2.0187645 1.6116867-4.2197762 3.3203888-6.4938469 5.0453491-.1529655.1151199-.3059311.2302322-.4645157.350914-5.3113632 4.0048904-11.0045166 8.0412979-15.8721256 11.01548-.3446617.2026901-.6846123.4100876-1.0189724.6119003-5.3551121 3.1682053-9.5602131 4.8834457-10.8761292 3.5675278-2.7217999-2.7217941 7.506649-17.7500839 16.7760124-29.8501129.177372-.2247543.3500366-.454216.5274353-.6789436 5.3262405-6.9167099 10.2458191-12.75457 12.1001091-14.6088638 5.1273422-5.1273422 12.7989616-5.7554131 17.1443672-1.4100037 4.3454132 4.3454093 3.7173386 12.0170249-1.4100036 17.1443672z" fill="#fb7833"/></svg>